{
    "asset": {
        "version": "2.0",
        "generator": "Open Asset Import Library (assimp v5.2.cf7d3637)"
    },
    "extensionsUsed": [
        "KHR_materials_volume",
        "FB_ngon_encoding"
    ],
    "accessors": [
        {
            "bufferView": 0,
            "byteOffset": 0,
            "componentType": 5126,
            "count": 864,
            "type": "VEC3",
            "max": [
                2.1032519340515138,
                1.0085828304290772,
                2.1032519340515138
            ],
            "min": [
                -2.1032519340515138,
                -1.3197449445724488,
                -2.1032519340515138
            ]
        },
        {
            "bufferView": 1,
            "byteOffset": 0,
            "componentType": 5126,
            "count": 864,
            "type": "VEC3",
            "max": [
                1.0,
                1.0,
                1.0
            ],
            "min": [
                -1.0,
                -1.0,
                -1.0
            ]
        },
        {
            "bufferView": 2,
            "byteOffset": 0,
            "componentType": 5126,
            "count": 864,
            "type": "VEC2",
            "max": [
                0.8750000596046448,
                1.0
            ],
            "min": [
                0.125,
                0.0
            ]
        },
        {
            "bufferView": 3,
            "byteOffset": 0,
            "componentType": 5125,
            "count": 864,
            "type": "SCALAR",
            "max": [
                863
            ],
            "min": [
                0
            ]
        },
        {
            "bufferView": 4,
            "byteOffset": 0,
            "componentType": 5126,
            "count": 1626,
            "type": "VEC3",
            "max": [
                3.4373464584350588,
                0.5630273818969727,
                3.4373464584350588
            ],
            "min": [
                -3.4373464584350588,
                -0.5630273818969727,
                -3.4373464584350588
            ]
        },
        {
            "bufferView": 5,
            "byteOffset": 0,
            "componentType": 5126,
            "count": 1626,
            "type": "VEC3",
            "max": [
                0.9951865673065186,
                1.0,
                0.9951865673065186
            ],
            "min": [
                -0.9951865673065186,
                -1.0,
                -0.9951865673065186
            ]
        },
        {
            "bufferView": 6,
            "byteOffset": 0,
            "componentType": 5126,
            "count": 1626,
            "type": "VEC2",
            "max": [
                1.0,
                0.9900000095367432
            ],
            "min": [
                0.0,
                0.0
            ]
        },
        {
            "bufferView": 7,
            "byteOffset": 0,
            "componentType": 5125,
            "count": 1626,
            "type": "SCALAR",
            "max": [
                1625
            ],
            "min": [
                0
            ]
        },
        {
            "bufferView": 8,
            "byteOffset": 0,
            "componentType": 5126,
            "count": 384,
            "type": "VEC3",
            "max": [
                3.371856212615967,
                -0.5630273818969727,
                3.371856212615967
            ],
            "min": [
                -3.371856212615967,
                -0.5630273818969727,
                -3.371856212615967
            ]
        },
        {
            "bufferView": 9,
            "byteOffset": 0,
            "componentType": 5126,
            "count": 384,
            "type": "VEC3",
            "max": [
                0.0,
                -1.0,
                -0.0
            ],
            "min": [
                0.0,
                -1.0,
                -0.0
            ]
        },
        {
            "bufferView": 10,
            "byteOffset": 0,
            "componentType": 5126,
            "count": 384,
            "type": "VEC2",
            "max": [
                1.0,
                0.5
            ],
            "min": [
                0.0,
                0.4999999403953552
            ]
        },
        {
            "bufferView": 11,
            "byteOffset": 0,
            "componentType": 5125,
            "count": 384,
            "type": "SCALAR",
            "max": [
                383
            ],
            "min": [
                0
            ]
        },
        {
            "bufferView": 12,
            "byteOffset": 0,
            "componentType": 5126,
            "count": 90,
            "type": "VEC3",
            "max": [
                2.730741024017334,
                -0.02594369649887085,
                2.730740785598755
            ],
            "min": [
                -2.730741024017334,
                -0.02594369649887085,
                -2.730741262435913
            ]
        },
        {
            "bufferView": 13,
            "byteOffset": 0,
            "componentType": 5126,
            "count": 90,
            "type": "VEC3",
            "max": [
                0.0,
                -1.0,
                -0.0
            ],
            "min": [
                0.0,
                -1.0,
                -0.0
            ]
        },
        {
            "bufferView": 14,
            "byteOffset": 0,
            "componentType": 5126,
            "count": 90,
            "type": "VEC2",
            "max": [
                0.8554238677024841,
                0.9311244487762451
            ],
            "min": [
                0.1890208125114441,
                0.0009744167327880859
            ]
        },
        {
            "bufferView": 15,
            "byteOffset": 0,
            "componentType": 5125,
            "count": 90,
            "type": "SCALAR",
            "max": [
                89
            ],
            "min": [
                0
            ]
        },
        {
            "bufferView": 16,
            "byteOffset": 0,
            "componentType": 5126,
            "count": 372,
            "type": "VEC3",
            "max": [
                0.11922025680541992,
                0.14147186279296876,
                0.11922025680541992
            ],
            "min": [
                -0.11922025680541992,
                -0.14147186279296876,
                -0.11922025680541992
            ]
        },
        {
            "bufferView": 17,
            "byteOffset": 0,
            "componentType": 5126,
            "count": 372,
            "type": "VEC3",
            "max": [
                0.9951865673065186,
                1.0,
                0.9951865673065186
            ],
            "min": [
                -0.9951865673065186,
                -1.0,
                -0.9951865673065186
            ]
        },
        {
            "bufferView": 18,
            "byteOffset": 0,
            "componentType": 5126,
            "count": 372,
            "type": "VEC2",
            "max": [
                1.0,
                0.9900000095367432
            ],
            "min": [
                0.0,
                0.0
            ]
        },
        {
            "bufferView": 19,
            "byteOffset": 0,
            "componentType": 5125,
            "count": 372,
            "type": "SCALAR",
            "max": [
                371
            ],
            "min": [
                0
            ]
        }
    ],
    "buffers": [
        {
            "byteLength": 120096,
            "uri": "result.bin"
        }
    ],
    "bufferViews": [
        {
            "buffer": 0,
            "byteOffset": 0,
            "byteLength": 10368,
            "target": 34962
        },
        {
            "buffer": 0,
            "byteOffset": 10368,
            "byteLength": 10368,
            "target": 34962
        },
        {
            "buffer": 0,
            "byteOffset": 20736,
            "byteLength": 6912,
            "target": 34962
        },
        {
            "buffer": 0,
            "byteOffset": 27648,
            "byteLength": 3456,
            "target": 34963
        },
        {
            "buffer": 0,
            "byteOffset": 31104,
            "byteLength": 19512,
            "target": 34962
        },
        {
            "buffer": 0,
            "byteOffset": 50616,
            "byteLength": 19512,
            "target": 34962
        },
        {
            "buffer": 0,
            "byteOffset": 70128,
            "byteLength": 13008,
            "target": 34962
        },
        {
            "buffer": 0,
            "byteOffset": 83136,
            "byteLength": 6504,
            "target": 34963
        },
        {
            "buffer": 0,
            "byteOffset": 89640,
            "byteLength": 4608,
            "target": 34962
        },
        {
            "buffer": 0,
            "byteOffset": 94248,
            "byteLength": 4608,
            "target": 34962
        },
        {
            "buffer": 0,
            "byteOffset": 98856,
            "byteLength": 3072,
            "target": 34962
        },
        {
            "buffer": 0,
            "byteOffset": 101928,
            "byteLength": 1536,
            "target": 34963
        },
        {
            "buffer": 0,
            "byteOffset": 103464,
            "byteLength": 1080,
            "target": 34962
        },
        {
            "buffer": 0,
            "byteOffset": 104544,
            "byteLength": 1080,
            "target": 34962
        },
        {
            "buffer": 0,
            "byteOffset": 105624,
            "byteLength": 720,
            "target": 34962
        },
        {
            "buffer": 0,
            "byteOffset": 106344,
            "byteLength": 360,
            "target": 34963
        },
        {
            "buffer": 0,
            "byteOffset": 106704,
            "byteLength": 4464,
            "target": 34962
        },
        {
            "buffer": 0,
            "byteOffset": 111168,
            "byteLength": 4464,
            "target": 34962
        },
        {
            "buffer": 0,
            "byteOffset": 115632,
            "byteLength": 2976,
            "target": 34962
        },
        {
            "buffer": 0,
            "byteOffset": 118608,
            "byteLength": 1488,
            "target": 34963
        }
    ],
    "images": [
        {
            "name": "beatiful_photo",
            "uri": "data:image/jpeg;base64,"
        }
    ],
    "materials": [
        {
            "name": "Material.001",
            "pbrMetallicRoughness": {
                "metallicFactor": 0.1269841343164444,
                "roughnessFactor": 0.5
            },
            "doubleSided": true
        },
        {
            "name": "Material.002",
            "pbrMetallicRoughness": {
                "metallicFactor": 0.2777777910232544,
                "roughnessFactor": 0.5
            },
            "doubleSided": true
        },
        {
            "name": "Material.003",
            "pbrMetallicRoughness": {
                "baseColorFactor": [
                    0.008668609894812107,
                    0.008668609894812107,
                    0.008668609894812107,
                    1.0
                ],
                "roughnessFactor": 0.5
            },
            "doubleSided": true
        },
        {
            "name": "Material.004",
            "pbrMetallicRoughness": {
                "baseColorTexture": {
                    "index": 0
                },
                "metallicFactor": 0.0,
                "roughnessFactor": 0.5555555820465088
            },
            "doubleSided": true
        },
        {
            "name": "material"
        }
    ],
    "meshes": [
        {
            "name": "Cube.002",
            "primitives": [
                {
                    "mode": 4,
                    "material": 0,
                    "indices": 3,
                    "attributes": {
                        "POSITION": 0,
                        "NORMAL": 1,
                        "TEXCOORD_0": 2
                    }
                }
            ]
        },
        {
            "name": "Cylinder-0",
            "primitives": [
                {
                    "mode": 4,
                    "material": 1,
                    "indices": 7,
                    "attributes": {
                        "POSITION": 4,
                        "NORMAL": 5,
                        "TEXCOORD_0": 6
                    }
                },
                {
                    "mode": 4,
                    "material": 2,
                    "indices": 11,
                    "attributes": {
                        "POSITION": 8,
                        "NORMAL": 9,
                        "TEXCOORD_0": 10
                    }
                },
                {
                    "mode": 4,
                    "material": 3,
                    "indices": 15,
                    "attributes": {
                        "POSITION": 12,
                        "NORMAL": 13,
                        "TEXCOORD_0": 14
                    }
                }
            ]
        },
        {
            "name": "Cylinder.001",
            "primitives": [
                {
                    "mode": 4,
                    "material": 4,
                    "indices": 19,
                    "attributes": {
                        "POSITION": 16,
                        "NORMAL": 17,
                        "TEXCOORD_0": 18
                    }
                }
            ]
        }
    ],
    "nodes": [
        {
            "name": "ROOT",
            "children": [
                1,
                2,
                3
            ]
        },
        {
            "name": "Cube",
            "matrix": [
                1.0,
                0.0,
                0.0,
                0.0,
                0.0,
                1.0,
                0.0,
                0.0,
                0.0,
                0.0,
                1.0,
                0.0,
                0.032433658838272098,
                1.0085828304290772,
                0.026255622506141664,
                1.0
            ],
            "mesh": 0
        },
        {
            "name": "Cylinder",
            "matrix": [
                0.0,
                0.0,
                -1.8657032251358033,
                0.0,
                2.1230719089508058,
                0.0,
                0.0,
                0.0,
                0.0,
                -1.8657032251358033,
                0.0,
                0.0,
                0.13937485218048097,
                8.424897193908692,
                0.04875680059194565,
                1.0
            ],
            "mesh": 1
        },
        {
            "name": "Cylinder.001",
            "matrix": [
                1.0,
                0.0,
                0.0,
                0.0,
                0.0,
                1.0,
                0.0,
                0.0,
                0.0,
                0.0,
                1.0,
                0.0,
                0.05904436111450195,
                1.579781174659729,
                1.7566217184066773,
                1.0
            ],
            "mesh": 2
        }
    ],
    "samplers": [
        {
            "wrapS": 33071,
            "wrapT": 33071,
            "magFilter": 9729,
            "minFilter": 9987
        }
    ],
    "scenes": [
        {
            "nodes": [
                0
            ]
        }
    ],
    "textures": [
        {
            "source": 0,
            "sampler": 0
        }
    ],
    "scene": 0
}